<svg xmlns="http://www.w3.org/2000/svg" width="512" height="512" viewBox="0 0 24 24"><g fill="#fff"><path xmlns="http://www.w3.org/2000/svg" d="M11.832 24a1.5 1.5 0 01-1.061-2.561l7.672-7.671a2.5 2.5 0 000-3.536l-7.672-7.671A1.5 1.5 0 0112.893.439l7.671 7.672a5.5 5.5 0 010 7.778l-7.671 7.672a1.5 1.5 0 01-1.061.439z" data-original="#000000"/><path xmlns="http://www.w3.org/2000/svg" d="M2.287 24a1.5 1.5 0 01-1.06-2.561l9.085-9.085a.5.5 0 000-.708L1.227 2.561A1.5 1.5 0 013.348.439l9.086 9.086a3.507 3.507 0 010 4.949l-9.086 9.087A1.5 1.5 0 012.287 24z" data-original="#000000"/></g></svg>